<?xml version="1.0" encoding="iso-8859-1"?>
<!-- Generator: Adobe Illustrator 19.0.0, SVG Export Plug-In . SVG Version: 6.00 Build 0)  -->
<svg version="1.1" id="Capa_1" xmlns="http://www.w3.org/2000/svg" xmlns:xlink="http://www.w3.org/1999/xlink" x="0px" y="0px"
	 viewBox="0 0 397.061 397.061" style="enable-background:new 0 0 397.061 397.061;" xml:space="preserve">
<g>
	<g>
		<g>
			<path d="M86.204,67.918h31.347c1.443,0,2.612-1.17,2.612-2.612V2.612c0-1.443-1.169-2.612-2.612-2.612H86.204
				c-1.443,0-2.612,1.17-2.612,2.612v62.694C83.592,66.749,84.761,67.918,86.204,67.918z"/>
			<path d="M367.804,47.02h-38.661v16.718c0,9.927-7.314,19.853-17.241,19.853h-30.824c-10.637-0.754-19.099-9.216-19.853-19.853
				V47.02H135.837v16.718c-0.754,10.637-9.216,19.099-19.853,19.853H85.159c-9.927,0-17.241-9.927-17.241-19.853V47.02H29.257
				C15.9,47.305,5.221,58.216,5.224,71.576v64.261h386.612V71.576C391.84,58.216,381.161,47.305,367.804,47.02z"/>
			<path d="M279.51,67.918h31.347c1.443,0,2.612-1.17,2.612-2.612V2.612c0-1.443-1.17-2.612-2.612-2.612H279.51
				c-1.443,0-2.612,1.17-2.612,2.612v62.694C276.898,66.749,278.067,67.918,279.51,67.918z"/>
			<path d="M159.347,291.527l-7.314,42.318l37.616-19.853l3.657-1.045l3.657,1.045l37.616,19.853l-7.314-42.318
				c-0.279-2.456,0.478-4.917,2.09-6.792l30.825-29.257l-42.318-6.269c-2.474-0.395-4.609-1.948-5.747-4.18l-18.808-38.139
				l-18.808,38.139c-1.138,2.232-3.273,3.785-5.747,4.18l-42.318,6.269l30.825,29.257
				C158.869,286.609,159.626,289.07,159.347,291.527z"/>
			<path d="M5.224,373.551c0.284,13.068,10.961,23.513,24.033,23.51h338.547c13.071,0.003,23.748-10.442,24.033-23.51V151.51H5.224
				V373.551z M102.4,247.641c0.834-2.854,3.312-4.919,6.269-5.224l53.812-8.359l24.033-48.588c2.159-3.751,6.951-5.041,10.702-2.882
				c1.198,0.69,2.192,1.684,2.882,2.882l24.033,48.588l53.812,8.359c2.957,0.305,5.436,2.371,6.269,5.224
				c0.948,2.795,0.124,5.885-2.09,7.837l-38.661,37.616l9.404,53.812c0.363,2.827-0.838,5.628-3.135,7.314
				c-1.373,0.986-3.012,1.532-4.702,1.567c-1.307,0.124-2.613-0.249-3.657-1.045l-48.065-25.078l-48.065,25.078
				c-2.62,1.596-5.958,1.388-8.359-0.522c-2.297-1.687-3.497-4.488-3.135-7.314l9.404-53.812l-38.661-37.616
				C102.276,253.526,101.452,250.435,102.4,247.641z"/>
		</g>
	</g>
</g>
<g>
</g>
<g>
</g>
<g>
</g>
<g>
</g>
<g>
</g>
<g>
</g>
<g>
</g>
<g>
</g>
<g>
</g>
<g>
</g>
<g>
</g>
<g>
</g>
<g>
</g>
<g>
</g>
<g>
</g>
</svg>
