<svg height="436pt" viewBox="0 -11 436.25881 436" width="436pt" xmlns="http://www.w3.org/2000/svg"><path d="m241.425781 88.832031c0 48.988281-39.714843 88.703125-88.703125 88.703125-48.988281 0-88.703125-39.714844-88.703125-88.703125s39.714844-88.703125 88.703125-88.703125c48.988282 0 88.703125 39.714844 88.703125 88.703125zm0 0"/><path d="m382.519531 248.164062 16.191407-16.195312 37.546874 37.546875-16.191406 16.195313zm0 0"/><path d="m275.761719 354.800781 96.800781-96.800781 37.546875 37.546875-96.800781 96.800781zm0 0"/><path d="m253.300781 414.917969 47.097657-15.699219-31.398438-31.402344zm0 0"/><path d="m259.300781 352.515625.300781-.597656c0-.101563 0-.101563.097657-.199219.226562-.511719.53125-.984375.902343-1.402344 0-.097656.097657-.097656.097657-.199218l.300781-.300782 29.101562-29.097656c-25.808593-52.273438-79.007812-85.402344-137.300781-85.5-82 0-149.199219 64.898438-152.800781 146h249.800781l9.597657-28.703125zm0 0"/></svg>